<svg width="1024" height="1024" viewBox="0 0 1024 1024" fill="none" xmlns="http://www.w3.org/2000/svg">
<path d="M750.035 417.251C715.891 417.251 688.112 389.601 688.112 355.614C688.112 321.613 715.891 293.954 750.035 293.954C755.466 293.954 760.857 294.663 766.058 296.064L769.271 296.929L766.868 299.231C763.988 301.989 764.834 304.145 767.022 308.759C768.536 311.95 770.253 315.568 770.253 320.136C770.253 334.375 773.506 335.099 782.917 335.099C784.39 335.099 785.994 335.065 787.735 335.028C789.837 334.985 792.137 334.936 794.649 334.936C799.462 334.936 802.197 340.553 804.612 345.508C805.601 347.54 807.661 351.767 808.638 351.767C808.691 351.767 808.815 351.726 808.991 351.608L811.813 349.711L811.914 353.113C811.939 353.938 811.961 354.766 811.961 355.616C811.957 389.6 784.178 417.251 750.035 417.251Z" fill="#15144B"></path>
<path d="M949.306 667.075C944.334 654.557 935.692 643.805 924.962 635.662C880.287 601.762 832.689 633.534 832.689 633.534C832.689 633.534 855.27 629.001 873.82 636.821C887.274 642.493 896.331 655.912 895.969 670.507C895.511 689.009 880.514 706.084 851.722 706.746C813.274 706.746 769.992 671.674 745.203 648.114C709.902 617.725 655.107 568.148 591.411 568.148C527.716 568.148 512.982 615.881 512.982 615.881C512.982 615.881 498.248 568.148 434.552 568.148C370.856 568.148 316.061 617.723 280.76 648.114C255.971 671.674 212.689 706.746 174.241 706.746C145.447 706.084 130.45 689.009 129.995 670.507C129.634 655.91 138.691 642.493 152.143 636.821C170.693 629.001 193.274 633.534 193.274 633.534C193.274 633.534 145.676 601.761 101.001 635.662C90.2712 643.803 81.6293 654.557 76.6573 667.075C57.3379 715.722 100.119 758.395 116.837 771.825C130.649 781.955 205.55 836.288 336.319 817.256C468.622 794.54 512.98 715.803 512.98 715.803C512.98 715.803 557.337 794.54 689.641 817.256C820.41 836.288 895.31 781.955 909.125 771.825C925.846 758.395 968.625 715.722 949.306 667.075Z" fill="#12122E"></path>
<path d="M704.332 485.66C711.092 487.277 719.722 489.229 725.98 490.27C603.427 429.165 630.298 326.615 630.298 326.615C622.947 342.46 605.432 362.1 608.072 384.583C611.307 412.178 629.683 441.389 650.023 460.303C664.062 473.335 684.577 480.927 704.238 485.64L704.247 485.645L704.332 485.66Z" fill="#7198F7"></path>
<path d="M930.251 380.701C928.277 438.629 878.049 489.124 817.836 510.13C822.166 507.798 873.968 467.194 883.057 402.198C894.595 323.739 828.975 303.397 823.907 300.946C823.717 300.851 814.258 292.708 814.258 292.708C776.146 272.582 773.622 281.501 760.562 281.381C755.162 281.334 740.768 278.912 735.392 278.863C712.816 278.696 700.654 282.383 682.954 288.092C659.045 295.753 631.987 293.614 613.05 308.102C640.195 268.231 690.892 231.663 756.577 230.307C849.001 231.761 932.844 305.072 930.251 380.701Z" fill="url(#paint0_linear_1_2)"></path>
<path d="M901.459 404.694C892.37 469.688 826.035 509.803 821.706 512.135C821.635 512.16 819.033 514.104 819.033 514.104C800.192 520.646 778.133 520.41 756.387 520.41C665.057 520.41 590.76 457.556 590.76 380.286C590.76 354.069 598.588 329.328 613.052 308.106C631.988 293.618 652.282 281.39 676.19 273.73C671.552 276.704 645.026 294.785 630.3 326.615C622.949 342.459 618.547 361.681 621.189 384.162C624.424 411.76 637.415 437.499 657.755 456.414C676.644 473.947 700.735 485.711 725.216 489.778C730.665 490.707 734.967 490.024 740.533 490.191C745.363 490.501 745.695 481.429 750.286 481.382C835.573 480.455 876.475 429.111 873.619 363.711C872.169 313.658 840.724 290.167 837.035 288.074C842.103 290.524 912.996 326.234 901.459 404.694Z" fill="url(#paint1_linear_1_2)"></path>
<path d="M754.626 491.598H752.674C799.589 480.726 834.322 443.91 843.624 403.039C851.666 361.835 826.871 339.791 818.663 329.776C818.258 328.754 817.83 327.754 817.378 326.755C817.306 326.589 817.235 326.421 817.164 326.279C816.736 325.35 816.308 324.448 815.856 323.566C815.689 323.209 815.5 322.875 815.308 322.519C814.974 321.853 814.642 321.211 814.261 320.568C814.119 320.307 813.976 320.044 813.834 319.759C813.263 318.783 812.691 317.832 812.096 316.881C808.955 306.746 813.672 294.734 803.989 290.691C803.06 289.978 802.133 289.287 801.158 288.621C799.255 287.24 797.28 285.957 795.257 284.79C793.355 283.647 791.403 282.602 789.428 281.602C788.476 281.126 787.501 280.674 786.525 280.246C785.503 279.769 784.456 279.341 783.409 278.914C783.384 278.889 783.362 278.889 783.337 278.889C782.291 278.437 781.219 278.034 780.125 277.675C779.103 277.295 778.103 276.962 777.08 276.653C776.913 276.582 776.746 276.535 776.604 276.486C775.604 276.152 774.606 275.867 773.583 275.63C773.512 275.583 771.393 275.036 770.371 274.797C770.204 274.75 767.707 274.203 766.613 274.011C765.448 273.773 764.281 273.583 763.091 273.441C761.902 273.251 760.712 273.109 759.523 272.989C758.333 272.846 757.144 272.75 755.93 272.679C754.74 272.583 753.526 272.512 752.29 272.512V265.161C765.35 265.279 798.632 267.803 836.744 287.929C836.744 287.929 836.84 287.976 837.029 288.072C840.716 290.165 880.184 313.504 881.636 363.557C884.496 428.959 839.913 490.67 754.626 491.598Z" fill="url(#paint2_linear_1_2)"></path>
<path d="M853.568 409.214C844.266 450.085 799.59 480.726 752.675 491.598C752.65 491.598 752.65 491.598 752.628 491.598C748.678 491.598 744.635 491.48 740.519 491.217C734.952 491.05 729.875 490.666 724.426 489.739C653.222 465.14 609.53 397.485 630.298 326.615C645.025 294.783 671.551 276.704 676.189 273.73C693.889 268.02 713.539 264.808 736.115 264.975C741.492 265.022 746.892 265.118 752.292 265.165V272.516C751.555 272.469 751.673 283.796 750.911 283.796C703.022 283.796 687.986 309.502 687.986 355.844C687.986 402.187 704.403 424.433 752.292 424.433C800.18 424.433 836.746 402.718 836.746 356.375C836.746 345.645 834.677 335.392 830.87 325.947C839.08 335.964 861.61 368.008 853.568 409.214Z" fill="url(#paint3_linear_1_2)"></path>
<path d="M836.742 356.37C836.742 402.712 797.923 440.274 750.042 440.274C702.142 440.274 663.323 402.712 663.323 356.37C663.323 310.027 702.142 272.465 750.042 272.465C750.793 272.465 751.562 272.465 752.294 272.521C753.532 272.521 754.752 272.578 755.934 272.69C757.153 272.747 758.335 272.84 759.536 272.991C760.718 273.103 761.9 273.253 763.101 273.441C764.283 273.591 765.446 273.779 766.609 274.022C767.716 274.21 770.211 274.754 770.38 274.792C771.394 275.036 773.514 275.58 773.589 275.636C774.602 275.861 775.615 276.161 776.609 276.48C776.76 276.537 776.91 276.574 777.078 276.649C778.11 276.968 779.105 277.306 780.137 277.681C781.225 278.038 782.294 278.432 783.345 278.882C783.364 278.882 783.383 278.882 783.42 278.919C784.452 279.351 785.503 279.764 786.535 280.252C787.51 280.683 788.486 281.133 789.424 281.602C791.413 282.597 793.364 283.647 795.259 284.792C797.285 285.955 799.255 287.25 801.15 288.619C802.126 289.295 803.064 289.97 803.984 290.683C799.762 288.901 795.109 287.925 790.231 287.925C780.681 287.925 771.975 291.715 765.577 297.869C760.624 296.537 755.408 295.824 750.042 295.824C716.927 295.824 689.984 322.635 689.984 355.619C689.984 388.566 716.927 415.377 750.042 415.377C781.638 415.377 807.605 390.967 809.912 360.103C810.025 358.621 810.081 357.12 810.081 355.619C810.081 354.775 810.062 353.968 810.025 353.161C819.594 346.782 825.879 335.919 825.879 323.573C825.879 319.896 825.335 316.388 824.303 313.048C824.903 314.005 825.466 314.962 826.048 315.937C826.179 316.219 826.329 316.481 826.479 316.744C826.855 317.382 827.192 318.02 827.511 318.695C827.718 319.052 827.905 319.389 828.074 319.746C828.524 320.628 828.937 321.528 829.369 322.448C829.444 322.598 829.519 322.767 829.594 322.936C830.044 323.93 830.476 324.924 830.87 325.956C834.678 335.394 836.742 345.638 836.742 356.37Z" fill="#1B1861"></path>
<path d="M825.877 323.568C825.877 335.915 819.597 346.788 810.032 353.163C804.37 356.97 797.567 359.182 790.238 359.182C770.564 359.182 754.624 343.244 754.624 323.568C754.624 313.481 758.812 304.346 765.568 297.875C771.968 291.713 780.675 287.931 790.238 287.931C795.115 287.931 799.754 288.907 803.989 290.691C813.672 294.736 821.166 302.918 824.307 313.054C825.329 316.384 825.877 319.905 825.877 323.568Z" fill="#FEFEFE"></path>
<path d="M440.378 382.903C440.378 460.198 358.349 526.687 266.448 526.687C254.268 526.687 241.602 524.691 230.205 522.597C230.087 522.573 232.421 517.638 232.303 517.616C183.439 506.863 147.143 471.116 130.824 431.79C116.026 396.104 120.236 354.972 141.935 322.997C149.999 311.149 161.513 299.113 178.334 289.31C115.765 347.381 135.272 444.469 210.76 478.799C226.485 485.96 243.566 489.551 260.792 490.17H260.887C262.315 490.217 263.743 490.242 265.169 490.242C275.589 490.289 286.295 490.217 297.072 489.077C297.072 489.077 297.096 489.077 297.119 489.077C321.789 486.508 346.792 478.467 369.535 454.01C390.709 431.242 402.818 401.221 402.889 370.151C403.078 294.379 333.827 271.493 331.662 270.803C394.611 283.126 418.306 320.119 422.135 326.757C422.207 326.9 422.278 327.018 422.325 327.114C422.443 327.352 422.539 327.519 422.585 327.637C422.657 327.733 422.681 327.804 422.681 327.804C430.344 343.885 440.378 364.513 440.378 382.903Z" fill="url(#paint4_linear_1_2)"></path>
<path d="M328.375 353.347C328.375 358.724 328.915 364.612 327.583 369.584C329.024 370.207 323.847 378.474 324.489 378.237C315.116 399.695 292.288 416.388 267.379 416.388C233.811 416.388 205.469 386.969 205.469 353.379C205.469 319.812 233.81 291.494 267.379 291.494C273.327 291.494 279.06 293.451 284.484 295.046C275.492 301.445 269.662 311.817 269.662 323.57C269.662 343.03 285.696 358.803 305.466 358.803C314.078 358.803 321.953 355.805 328.114 350.857C328.564 351.638 328.375 352.514 328.375 353.347Z" fill="#131247"></path>
<path d="M354.314 356.724C354.314 403.138 314.363 441.852 266.45 441.852C218.537 441.852 173.243 403.129 174.204 356.724C175.148 311.168 223.892 277.816 223.914 277.816C235.097 272.345 251.176 269.703 264.499 269.416C265.141 269.392 265.807 269.392 266.45 269.392C267.355 269.392 268.281 269.392 269.186 269.439C269.328 269.439 269.495 269.439 269.638 269.463C289.74 270.154 308.106 280.76 322.452 292.537C317.384 289.873 314.609 293.704 308.47 293.704C300.62 293.704 290.357 290.824 284.482 295.034C279.058 293.439 273.325 292.584 267.377 292.584C233.81 292.584 206.569 319.8 206.569 353.368C206.569 386.96 233.808 414.176 267.377 414.176C292.286 414.176 313.697 399.189 323.069 377.731L323.093 377.706C324.791 373.541 326.138 368.976 326.138 368.952C327.47 363.98 328.161 358.745 328.161 353.37C328.161 352.537 328.137 351.681 328.114 350.848C336.131 344.377 341.246 334.551 341.246 323.56C341.246 318.66 340.223 313.973 338.39 309.738C347.764 323.157 354.314 339.336 354.314 356.724Z" fill="#191760"></path>
<path d="M396.33 360.25C395.853 463.95 305.023 493.934 301.312 494.91C301.288 494.91 259.951 497.58 258.523 497.531C258.523 497.531 201.567 477.575 181.439 452.119C166.331 433.04 155.187 405.545 152.807 381.327C147.597 328.061 188.253 293.257 227.34 281.696C199.077 295.565 179.688 323.947 179.688 356.73C179.688 403.144 218.537 440.756 266.45 440.756C314.363 440.756 353.212 403.144 353.212 356.73C353.212 339.339 347.764 323.163 338.39 309.744C338.39 309.719 338.39 309.719 338.366 309.719C329.388 311.952 323.726 307.547 322.45 292.543C308.104 280.766 289.738 273.463 269.636 272.773C329.878 273.728 396.33 302.867 396.33 360.25Z" fill="url(#paint5_linear_1_2)"></path>
<path d="M162.538 382.021C164.917 406.24 174.29 429.411 189.396 448.49C209.522 473.945 235.453 487.459 260.79 490.171C243.566 489.551 222.297 489.328 206.572 482.168C131.086 447.839 110.482 345.538 173.05 287.467C173.074 287.467 178.382 285.985 178.405 285.961C198.507 274.257 226.151 269.043 264.501 267.782V272.73C251.178 273.015 238.616 276.203 227.436 281.676C227.412 281.676 227.365 281.7 227.34 281.7C188.255 293.259 157.327 328.756 162.538 382.021Z" fill="url(#paint6_linear_1_2)"></path>
<path d="M409.229 369C409.157 400.071 396.108 431.871 374.935 454.637C352.192 479.093 321.787 486.506 297.119 489.075C300.83 488.099 389.425 463.881 389.9 360.18C389.9 302.798 330.469 275.614 269.642 272.775C269.499 272.75 269.332 272.75 269.189 272.75C268.285 272.704 267.358 272.704 266.454 272.704C265.812 272.704 263.257 272.764 262.615 272.788V268.064C288.807 265.898 333.067 261.433 333.092 261.456C335.255 262.148 409.42 293.229 409.229 369Z" fill="url(#paint7_linear_1_2)"></path>
<path d="M440.378 382.903C440.378 460.198 358.349 526.687 266.448 526.687C254.268 526.687 241.602 524.691 230.205 522.597C230.087 522.573 232.421 517.638 232.303 517.616C183.439 506.863 143.014 473.356 126.692 434.03C111.895 398.345 116.794 354.548 138.49 322.573C146.554 310.725 161.511 299.113 178.332 289.312C115.763 347.383 135.271 444.471 210.758 478.801C226.483 485.962 243.564 489.553 260.79 490.172H260.885C262.313 490.219 263.741 490.244 265.167 490.244C275.587 490.291 286.293 490.219 297.07 489.079C297.07 489.079 297.095 489.079 297.117 489.079C321.787 486.51 346.79 478.469 369.533 454.012C390.707 431.244 402.816 401.223 402.887 370.152C403.077 294.381 333.825 271.495 331.66 270.805C394.609 283.128 418.304 320.121 422.133 326.759C422.205 326.902 422.276 327.02 422.323 327.116C422.441 327.354 422.537 327.521 422.584 327.639C422.655 327.735 422.679 327.806 422.679 327.806C430.344 343.885 440.378 364.513 440.378 382.903Z" fill="url(#paint8_linear_1_2)"></path>
<path d="M422.135 326.757C418.306 320.119 394.609 283.126 331.662 270.803C331.638 270.778 331.615 270.778 331.615 270.778C312.892 267.114 291.062 266.266 264.87 268.431C226.52 269.692 198.51 277.559 178.407 289.263C178.382 289.287 178.36 289.31 178.335 289.31C161.515 299.111 150.001 311.149 141.937 322.997C120.24 354.972 116.03 396.104 130.826 431.79C147.145 471.116 183.497 505.801 232.361 516.554C157.684 502.779 96.491 445.922 96.491 378.976C96.491 301.659 175.491 234.714 267.37 234.714C336.93 234.714 397.322 275.75 422.135 326.757Z" fill="url(#paint9_linear_1_2)"></path>
<path d="M937.739 285.432C899.607 232.686 829.066 203 757.506 203C671.141 204.432 607.774 237.924 574.518 288.248C548.2 271.651 512.993 272.469 512.993 272.469C512.993 272.469 477.786 271.651 451.468 288.248C416.45 238.158 354.831 204.432 268.482 203C196.919 203 124.73 232.449 86.5957 285.195C14.138 237.466 -24.97 340.381 61.0003 351.66C59.6945 360.092 59.049 368.839 59.1447 377.884C59.1447 476.677 152.856 552.769 268.482 552.769C384.091 552.769 477.802 474.474 477.802 377.884C477.802 362.891 475.93 348.403 472.234 334.607C472.187 334.435 472.14 334.245 472.093 334.088C483.546 316.5 512.995 315.211 512.995 315.211C512.995 315.211 542.444 316.502 553.881 334.088C553.834 334.245 553.788 334.433 553.739 334.607C550.058 348.403 548.17 362.893 548.17 377.884C548.17 474.474 641.882 552.769 757.508 552.769C873.133 552.769 966.828 476.677 966.828 377.884C966.922 368.839 966.293 360.092 964.972 351.66C1047.76 337.754 1006.63 237.813 937.739 285.432ZM63.1711 322.573C48.3527 319.71 44.7503 311.845 47.4877 305.898C50.0356 300.297 57.1934 299.417 70.0624 306.228C67.4657 311.562 65.1692 317.005 63.1711 322.573ZM268.167 519.813C255.99 519.813 244.114 518.711 232.725 516.619C232.599 516.604 232.489 516.573 232.363 516.556C157.686 502.775 101.808 446.772 101.808 379.836C101.808 302.517 176.296 239.858 268.167 239.858C337.731 239.858 397.32 275.758 422.129 326.757C422.208 326.9 422.27 327.026 422.319 327.119C422.445 327.356 422.538 327.513 422.587 327.639C422.666 327.733 422.681 327.797 422.681 327.797C430.342 343.889 434.558 361.447 434.558 379.836C434.558 457.123 360.07 519.813 268.167 519.813ZM922.007 380.291C920.041 438.214 878.053 489.122 817.834 510.137C817.77 510.152 817.723 510.184 817.661 510.201C817.646 510.233 817.614 510.233 817.614 510.233C798.784 516.762 778.129 520.411 756.387 520.411C665.051 520.411 590.753 457.549 590.753 380.293C590.753 354.069 598.588 329.324 613.044 308.102C640.197 268.238 690.693 240.834 756.387 239.466C848.81 240.928 924.604 304.655 922.007 380.291ZM962.344 323.328C960.346 317.476 957.938 311.749 955.201 306.149C958.537 303.852 967.425 298.488 974.048 302.248C976.14 303.46 977.603 305.599 978.185 307.96C980.701 318.641 963.758 322.997 962.344 323.328Z" fill="#12122E"></path>
<path d="M341.249 323.568C341.249 334.559 336.135 344.385 328.118 350.856C321.956 355.803 314.082 358.801 305.47 358.801C285.7 358.801 269.666 343.028 269.666 323.568C269.666 311.815 275.495 301.443 284.488 295.044C290.365 290.833 297.62 288.359 305.472 288.359C311.609 288.359 317.391 289.882 322.457 292.546C329.523 296.329 335.186 302.372 338.373 309.723C338.398 309.723 338.398 309.723 338.398 309.748C340.225 313.98 341.249 318.667 341.249 323.568Z" fill="#FEFEFE"></path>
<defs>
<linearGradient id="paint0_linear_1_2" x1="658.084" y1="540.186" x2="806.103" y2="303.306" gradientUnits="userSpaceOnUse">
<stop offset="0.7438" stop-color="#70BAF8"></stop>
<stop offset="1" stop-color="#FEFEFF"></stop>
</linearGradient>
<linearGradient id="paint1_linear_1_2" x1="603.054" y1="446.459" x2="884.242" y2="344.115" gradientUnits="userSpaceOnUse">
<stop offset="0.6154" stop-color="#587EF1"></stop>
<stop offset="0.9709" stop-color="#69BDFC"></stop>
</linearGradient>
<linearGradient id="paint2_linear_1_2" x1="817.032" y1="488.647" x2="817.032" y2="269.955" gradientUnits="userSpaceOnUse">
<stop stop-color="#59B0FC"></stop>
<stop offset="1" stop-color="#A7DAFA"></stop>
</linearGradient>
<linearGradient id="paint3_linear_1_2" x1="740.195" y1="490.949" x2="740.195" y2="268.456" gradientUnits="userSpaceOnUse">
<stop stop-color="#4F8FFB"></stop>
<stop offset="1" stop-color="#A7DAFA"></stop>
</linearGradient>
<linearGradient id="paint4_linear_1_2" x1="371.835" y1="497.253" x2="188.39" y2="278.631" gradientUnits="userSpaceOnUse">
<stop offset="0.3248" stop-color="#548DFA"></stop>
<stop offset="0.6249" stop-color="#81CEFD"></stop>
</linearGradient>
<linearGradient id="paint5_linear_1_2" x1="296.511" y1="493.046" x2="258.549" y2="277.747" gradientUnits="userSpaceOnUse">
<stop offset="0.1814" stop-color="#52A8FC"></stop>
<stop offset="0.6741" stop-color="#C5EAFE"></stop>
</linearGradient>
<linearGradient id="paint6_linear_1_2" x1="225.553" y1="471.696" x2="194.098" y2="289.131" gradientUnits="userSpaceOnUse">
<stop offset="0.2225" stop-color="#6FCAFD"></stop>
<stop offset="0.8088" stop-color="#C5EAFE"></stop>
</linearGradient>
<linearGradient id="paint7_linear_1_2" x1="363.859" y1="460.175" x2="314.891" y2="282.781" gradientUnits="userSpaceOnUse">
<stop offset="0.2802" stop-color="#6FCAFD"></stop>
<stop offset="0.6884" stop-color="#C5EAFE"></stop>
</linearGradient>
<linearGradient id="paint8_linear_1_2" x1="370.481" y1="498.389" x2="186.359" y2="278.96" gradientUnits="userSpaceOnUse">
<stop offset="0.3248" stop-color="#548DFA"></stop>
<stop offset="0.6249" stop-color="#81CEFD"></stop>
</linearGradient>
<linearGradient id="paint9_linear_1_2" x1="317.046" y1="467.661" x2="191.084" y2="249.489" gradientUnits="userSpaceOnUse">
<stop offset="0.2855" stop-color="#70BAF8"></stop>
<stop offset="0.7707" stop-color="#FEFEFF"></stop>
</linearGradient>
</defs>
</svg>