<svg width="1024" height="1024" viewBox="0 0 1024 1024" fill="none" xmlns="http://www.w3.org/2000/svg">
<path d="M949.306 667.078C944.334 654.56 935.692 643.807 924.962 635.665C880.287 601.765 832.69 633.537 832.69 633.537C832.69 633.537 855.27 629.004 873.82 636.824C887.274 642.496 896.331 655.915 895.969 670.51C895.511 689.011 880.514 706.087 851.722 706.749C813.274 706.749 769.992 671.677 745.203 648.117C709.902 617.728 655.107 568.15 591.411 568.15C527.716 568.15 512.982 615.884 512.982 615.884C512.982 615.884 498.248 568.15 434.552 568.15C370.856 568.15 316.061 617.726 280.76 648.117C255.972 671.677 212.689 706.749 174.241 706.749C145.447 706.087 130.451 689.011 129.995 670.51C129.634 655.913 138.691 642.496 152.143 636.824C170.694 629.004 193.274 633.537 193.274 633.537C193.274 633.537 145.676 601.763 101.001 635.665C90.2712 643.806 81.6294 654.56 76.6574 667.078C57.3379 715.725 100.12 758.398 116.837 771.828C130.649 781.958 205.55 836.292 336.319 817.259C468.622 794.544 512.98 715.806 512.98 715.806C512.98 715.806 557.337 794.544 689.641 817.259C820.41 836.292 895.31 781.958 909.125 771.828C925.846 758.398 968.625 715.725 949.306 667.078Z" fill="white"></path>
<path d="M704.332 485.662C711.092 487.279 719.722 489.23 725.979 490.272C603.427 429.167 630.298 326.616 630.298 326.616C622.947 342.46 605.432 362.101 608.072 384.584C611.307 412.179 629.682 441.39 650.023 460.305C664.062 473.337 684.577 480.928 704.238 485.641L704.247 485.647L704.332 485.662Z" fill="#7198F7"></path>
<path d="M930.251 380.702C928.277 438.63 878.049 489.125 817.836 510.132C822.166 507.8 873.968 467.196 883.057 402.2C894.595 323.739 828.975 303.397 823.907 300.947C823.717 300.851 814.258 292.708 814.258 292.708C776.146 272.582 773.622 281.502 760.562 281.382C755.162 281.335 740.768 278.912 735.392 278.864C712.816 278.697 700.654 282.383 682.954 288.093C659.045 295.753 631.987 293.615 613.05 308.103C640.195 268.231 690.892 231.663 756.577 230.307C849.001 231.761 932.844 305.073 930.251 380.702Z" fill="url(#paint0_linear_2_2)"></path>
<path d="M901.459 404.695C892.37 469.689 826.035 509.805 821.706 512.137C821.635 512.162 819.033 514.105 819.033 514.105C800.192 520.648 778.133 520.411 756.387 520.411C665.057 520.411 590.76 457.558 590.76 380.287C590.76 354.07 598.588 329.328 613.052 308.106C631.988 293.618 652.282 281.391 676.19 273.73C671.552 276.704 645.026 294.785 630.3 326.615C622.949 342.46 618.547 361.682 621.189 384.163C624.424 411.761 637.415 437.501 657.755 456.415C676.644 473.948 700.735 485.712 725.216 489.78C730.665 490.709 734.967 490.026 740.533 490.193C745.363 490.502 745.695 481.431 750.286 481.384C835.573 480.457 876.475 429.112 873.619 363.712C872.169 313.658 840.723 290.168 837.035 288.074C842.103 290.524 912.996 326.235 901.459 404.695Z" fill="url(#paint1_linear_2_2)"></path>
<path d="M754.626 491.6H752.675C799.589 480.727 834.322 443.912 843.624 403.04C851.666 361.836 826.871 339.792 818.663 329.777C818.258 328.754 817.83 327.754 817.378 326.756C817.306 326.589 817.235 326.422 817.164 326.279C816.736 325.351 816.308 324.448 815.856 323.566C815.689 323.21 815.5 322.876 815.308 322.519C814.974 321.853 814.642 321.212 814.261 320.568C814.119 320.307 813.976 320.045 813.834 319.76C813.263 318.784 812.691 317.833 812.096 316.881C808.955 306.746 813.672 294.734 803.989 290.691C803.06 289.978 802.133 289.288 801.158 288.622C799.255 287.241 797.28 285.957 795.257 284.79C793.355 283.648 791.403 282.603 789.428 281.603C788.477 281.126 787.501 280.674 786.525 280.246C785.503 279.77 784.456 279.342 783.409 278.914C783.384 278.89 783.362 278.89 783.337 278.89C782.291 278.437 781.219 278.034 780.125 277.676C779.103 277.295 778.103 276.963 777.08 276.653C776.913 276.582 776.746 276.535 776.604 276.486C775.604 276.152 774.606 275.867 773.583 275.631C773.512 275.584 771.393 275.036 770.371 274.798C770.204 274.751 767.707 274.203 766.613 274.011C765.448 273.773 764.281 273.584 763.091 273.441C761.902 273.252 760.712 273.109 759.523 272.989C758.333 272.846 757.144 272.751 755.93 272.679C754.74 272.584 753.526 272.512 752.29 272.512V265.161C765.35 265.279 798.632 267.803 836.744 287.929C836.744 287.929 836.84 287.976 837.029 288.072C840.716 290.166 880.184 313.504 881.636 363.558C884.496 428.96 839.913 490.671 754.626 491.6Z" fill="url(#paint2_linear_2_2)"></path>
<path d="M853.568 409.215C844.266 450.086 799.589 480.727 752.674 491.6C752.65 491.6 752.65 491.6 752.627 491.6C748.678 491.6 744.635 491.482 740.518 491.219C734.952 491.052 729.875 490.667 724.426 489.741C653.222 465.141 609.53 397.486 630.298 326.615C645.024 294.783 671.55 276.704 676.188 273.73C693.889 268.021 713.538 264.809 736.115 264.976C741.492 265.022 746.892 265.118 752.292 265.165V272.516C751.554 272.469 751.673 283.796 750.911 283.796C703.022 283.796 687.986 309.502 687.986 355.845C687.986 402.188 704.403 424.435 752.292 424.435C800.18 424.435 836.746 402.719 836.746 356.376C836.746 345.646 834.676 335.392 830.87 325.947C839.08 335.965 861.61 368.009 853.568 409.215Z" fill="url(#paint3_linear_2_2)"></path>
<path d="M836.75 356.376C836.75 402.719 797.925 440.285 750.035 440.285C702.146 440.285 663.319 402.721 663.319 356.376C663.319 310.033 702.144 272.467 750.035 272.467C750.796 272.467 751.558 272.467 752.295 272.514C753.532 272.514 754.746 272.586 755.935 272.681C757.149 272.753 758.339 272.848 759.528 272.991C760.718 273.109 761.907 273.252 763.097 273.443C764.286 273.586 765.451 273.777 766.618 274.013C767.712 274.205 770.211 274.751 770.377 274.8C771.399 275.038 773.517 275.584 773.589 275.633C774.611 275.871 775.611 276.156 776.609 276.488C776.752 276.535 776.919 276.584 777.086 276.655C778.108 276.965 779.108 277.297 780.131 277.678C781.225 278.034 782.296 278.439 783.343 278.892C783.367 278.892 783.39 278.892 783.414 278.916C784.461 279.344 785.508 279.772 786.531 280.248C787.506 280.676 788.482 281.128 789.433 281.605C791.407 282.605 793.358 283.65 795.263 284.792C797.285 285.958 799.259 287.243 801.163 288.624C802.139 289.29 803.066 289.98 803.995 290.693C799.76 288.909 795.122 287.933 790.244 287.933C780.681 287.933 771.973 291.716 765.573 297.877C760.626 296.545 760.07 312.14 754.693 312.14C721.578 312.14 701.521 327.908 701.521 360.881C701.521 393.831 716.921 399.895 750.038 399.895C783.154 399.895 810.085 388.565 810.085 355.616C810.085 354.783 810.06 353.975 810.038 353.166C819.601 346.791 825.883 335.918 825.883 323.57C825.883 319.906 825.335 316.386 824.312 313.054C824.907 314.005 825.477 314.957 826.05 315.932C826.192 316.217 826.335 316.48 826.477 316.741C826.858 317.383 827.19 318.026 827.524 318.692C827.714 319.049 827.905 319.383 828.072 319.739C828.524 320.619 828.952 321.523 829.38 322.452C829.451 322.595 829.522 322.762 829.594 322.929C830.046 323.927 830.474 324.927 830.879 325.949C834.678 335.392 836.75 345.646 836.75 356.376Z" fill="#1B1861"></path>
<path d="M810.081 355.615C810.081 388.565 783.15 415.376 750.035 415.376C716.919 415.376 689.988 388.565 689.988 355.615C689.988 322.642 716.917 295.83 750.035 295.83C755.412 295.83 760.622 296.543 765.57 297.876C758.813 304.347 768.377 310.048 768.377 320.135C768.377 339.809 774.973 336.811 794.647 336.811C801.974 336.811 804.372 356.971 810.032 353.164C810.057 353.973 810.081 354.782 810.081 355.615Z" fill="#15144B"></path>
<path d="M825.877 323.569C825.877 335.916 819.597 346.789 810.032 353.164C804.37 356.971 797.567 359.183 790.238 359.183C770.564 359.183 754.624 343.245 754.624 323.569C754.624 313.482 758.811 304.347 765.568 297.875C771.968 291.714 780.675 287.931 790.238 287.931C795.115 287.931 799.754 288.907 803.989 290.691C813.672 294.737 821.166 302.919 824.307 313.054C825.329 316.384 825.877 319.906 825.877 323.569Z" fill="#FEFEFE"></path>
<path d="M440.378 382.904C440.378 460.2 358.349 526.689 266.448 526.689C254.268 526.689 241.602 524.693 230.205 522.599C230.087 522.575 232.421 517.64 232.303 517.618C183.439 506.865 147.143 471.117 130.824 431.791C116.026 396.106 120.236 354.973 141.935 322.998C149.999 311.15 161.513 299.114 178.334 289.311C115.765 347.382 135.272 444.471 210.76 478.8C226.485 485.962 243.566 489.553 260.791 490.172H260.887C262.315 490.219 263.743 490.244 265.169 490.244C275.589 490.29 286.295 490.219 297.072 489.078C297.072 489.078 297.096 489.078 297.119 489.078C321.789 486.51 346.792 478.468 369.535 454.012C390.708 431.244 402.818 401.222 402.889 370.152C403.078 294.38 333.827 271.494 331.662 270.803C394.611 283.126 418.306 320.12 422.135 326.758C422.206 326.901 422.278 327.019 422.325 327.115C422.443 327.353 422.538 327.52 422.585 327.638C422.657 327.734 422.681 327.805 422.681 327.805C430.344 343.886 440.378 364.514 440.378 382.904Z" fill="url(#paint4_linear_2_2)"></path>
<path d="M328.165 353.378C328.165 358.755 328.917 364.613 327.585 369.585C329.026 370.208 323.849 378.474 324.491 378.238C315.117 399.697 292.289 416.389 267.381 416.389C233.813 416.389 205.471 386.97 205.471 353.38C205.471 319.812 233.811 291.494 267.381 291.494C273.328 291.494 279.062 293.451 284.486 295.046C275.494 301.446 269.664 311.818 269.664 323.57C269.664 343.031 285.698 358.804 305.468 358.804C314.08 358.804 321.954 355.806 328.116 350.858C328.14 351.689 328.165 352.545 328.165 353.378Z" fill="#131247"></path>
<path d="M354.314 356.725C354.314 403.139 314.363 441.853 266.45 441.853C218.537 441.853 173.243 403.13 174.204 356.725C175.148 311.168 223.892 277.816 223.914 277.816C235.097 272.345 251.176 269.704 264.499 269.417C265.141 269.392 265.807 269.392 266.45 269.392C267.355 269.392 268.281 269.392 269.186 269.439C269.328 269.439 269.495 269.439 269.638 269.463C289.74 270.154 308.106 280.76 322.452 292.537C317.384 289.873 314.609 293.704 308.47 293.704C300.62 293.704 290.357 290.824 284.482 295.035C279.058 293.44 273.325 292.584 267.377 292.584C233.81 292.584 206.569 319.801 206.569 353.369C206.569 386.961 233.808 414.177 267.377 414.177C292.286 414.177 313.697 399.19 323.069 377.731L323.093 377.707C324.791 373.542 326.138 368.977 326.138 368.952C327.47 363.98 328.161 358.746 328.161 353.37C328.161 352.537 328.137 351.682 328.114 350.849C336.131 344.378 341.246 334.552 341.246 323.561C341.246 318.66 340.223 313.973 338.39 309.739C347.764 323.157 354.314 339.336 354.314 356.725Z" fill="#191760"></path>
<path d="M396.33 360.251C395.853 463.952 305.023 493.936 301.312 494.912C301.288 494.912 259.951 497.582 258.523 497.533C258.523 497.533 201.567 477.577 181.439 452.12C166.331 433.041 155.187 405.547 152.807 381.328C147.597 328.062 188.253 293.258 227.34 281.697C199.077 295.566 179.688 323.948 179.688 356.731C179.688 403.145 218.537 440.758 266.45 440.758C314.363 440.758 353.212 403.145 353.212 356.731C353.212 339.34 347.764 323.163 338.39 309.745C338.39 309.72 338.39 309.72 338.366 309.72C329.388 311.953 323.726 307.547 322.45 292.543C308.104 280.766 289.738 273.464 269.636 272.773C329.878 273.728 396.33 302.868 396.33 360.251Z" fill="url(#paint5_linear_2_2)"></path>
<path d="M162.538 382.022C164.917 406.241 174.29 429.412 189.396 448.491C209.522 473.946 235.453 487.461 260.79 490.172C243.566 489.553 222.297 489.33 206.572 482.17C131.086 447.84 110.482 345.539 173.05 287.468C173.074 287.468 178.382 285.986 178.405 285.961C198.507 274.257 226.151 269.043 264.501 267.782V272.73C251.178 273.015 238.616 276.203 227.436 281.676C227.412 281.676 227.365 281.7 227.34 281.7C188.255 293.26 157.327 328.756 162.538 382.022Z" fill="url(#paint6_linear_2_2)"></path>
<path d="M409.229 369.002C409.157 400.072 396.108 431.872 374.935 454.638C352.192 479.095 321.787 486.508 297.119 489.077C300.83 488.101 389.425 463.883 389.9 360.181C389.9 302.799 330.469 275.614 269.642 272.775C269.499 272.751 269.332 272.751 269.189 272.751C268.285 272.704 267.358 272.704 266.454 272.704C265.812 272.704 263.257 272.764 262.615 272.788V268.064C288.807 265.899 333.067 261.434 333.092 261.456C335.255 262.148 409.42 293.23 409.229 369.002Z" fill="url(#paint7_linear_2_2)"></path>
<path d="M440.378 382.904C440.378 460.199 358.349 526.689 266.448 526.689C254.268 526.689 241.602 524.693 230.205 522.599C230.087 522.575 232.421 517.64 232.303 517.618C183.439 506.865 143.014 473.357 126.692 434.032C111.895 398.346 116.793 354.549 138.49 322.574C146.554 310.726 161.511 299.114 178.332 289.312C115.763 347.384 135.271 444.473 210.758 478.802C226.483 485.964 243.564 489.555 260.79 490.174H260.885C262.313 490.221 263.741 490.245 265.167 490.245C275.587 490.292 286.293 490.221 297.07 489.08C297.07 489.08 297.094 489.08 297.117 489.08C321.787 486.512 346.79 478.47 369.533 454.013C390.707 431.245 402.816 401.224 402.887 370.153C403.077 294.382 333.825 271.496 331.66 270.805C394.609 283.128 418.304 320.122 422.133 326.76C422.205 326.903 422.276 327.021 422.323 327.116C422.441 327.355 422.537 327.522 422.584 327.64C422.655 327.736 422.679 327.807 422.679 327.807C430.344 343.886 440.378 364.514 440.378 382.904Z" fill="url(#paint8_linear_2_2)"></path>
<path d="M422.135 326.758C418.306 320.12 394.609 283.126 331.662 270.803C331.638 270.779 331.615 270.779 331.615 270.779C312.892 267.114 291.062 266.266 264.87 268.432C226.52 269.692 198.51 277.559 178.407 289.263C178.382 289.288 178.36 289.31 178.335 289.31C161.515 299.112 150.001 311.15 141.937 322.998C120.24 354.973 116.03 396.105 130.826 431.791C147.145 471.117 183.497 505.803 232.361 516.556C157.684 502.78 96.4909 445.923 96.4909 378.977C96.4909 301.66 175.491 234.714 267.369 234.714C336.93 234.714 397.322 275.751 422.135 326.758Z" fill="url(#paint9_linear_2_2)"></path>
<path d="M937.739 285.432C899.607 232.686 829.066 203 757.506 203C671.141 204.432 607.774 237.924 574.518 288.248C548.2 271.651 512.993 272.469 512.993 272.469C512.993 272.469 477.786 271.651 451.468 288.248C416.45 238.159 354.831 204.432 268.482 203C196.919 203 124.73 232.449 86.5957 285.196C14.138 237.466 -24.97 340.381 61.0003 351.661C59.6945 360.093 59.049 368.84 59.1447 377.885C59.1447 476.678 152.856 552.771 268.482 552.771C384.091 552.771 477.802 474.476 477.802 377.885C477.802 362.892 475.93 348.404 472.234 334.608C472.187 334.436 472.14 334.246 472.093 334.089C483.546 316.501 512.995 315.212 512.995 315.212C512.995 315.212 542.444 316.503 553.881 334.089C553.834 334.246 553.788 334.434 553.739 334.608C550.058 348.404 548.17 362.894 548.17 377.885C548.17 474.476 641.882 552.771 757.508 552.771C873.133 552.771 966.828 476.678 966.828 377.885C966.922 368.84 966.293 360.093 964.972 351.661C1047.76 337.755 1006.63 237.813 937.739 285.432ZM63.1711 322.574C48.3527 319.711 44.7503 311.846 47.4877 305.898C50.0356 300.298 57.1934 299.418 70.0624 306.228C67.4657 311.562 65.1692 317.005 63.1711 322.574ZM268.167 519.815C255.99 519.815 244.114 518.713 232.725 516.621C232.599 516.606 232.489 516.574 232.363 516.558C157.686 502.777 101.808 446.773 101.808 379.837C101.808 302.517 176.296 239.859 268.167 239.859C337.731 239.859 397.32 275.758 422.129 326.758C422.208 326.901 422.27 327.026 422.319 327.12C422.445 327.357 422.538 327.514 422.587 327.64C422.666 327.734 422.681 327.798 422.681 327.798C430.342 343.89 434.558 361.448 434.558 379.837C434.558 457.124 360.07 519.815 268.167 519.815ZM922.007 380.293C920.041 438.216 878.053 489.123 817.834 510.139C817.77 510.154 817.723 510.186 817.661 510.203C817.646 510.235 817.614 510.235 817.614 510.235C798.784 516.764 778.129 520.413 756.387 520.413C665.051 520.413 590.753 457.55 590.753 380.294C590.753 354.07 598.588 329.325 613.044 308.103C640.197 268.238 690.693 240.834 756.387 239.466C848.81 240.928 924.604 304.656 922.007 380.293ZM962.344 323.328C960.346 317.476 957.938 311.75 955.201 306.15C958.537 303.853 967.425 298.489 974.048 302.249C976.14 303.461 977.603 305.6 978.185 307.96C980.701 318.642 963.758 322.998 962.344 323.328Z" fill="white"></path>
<path d="M341.249 323.569C341.249 334.56 336.135 344.385 328.118 350.857C321.956 355.804 314.082 358.802 305.47 358.802C285.7 358.802 269.666 343.029 269.666 323.569C269.666 311.816 275.495 301.444 284.488 295.044C290.364 290.834 297.62 288.359 305.472 288.359C311.609 288.359 317.391 289.883 322.457 292.547C329.523 296.33 335.186 302.373 338.373 309.724C338.398 309.724 338.398 309.724 338.398 309.748C340.225 313.981 341.249 318.668 341.249 323.569Z" fill="#FEFEFE"></path>
<defs>
<linearGradient id="paint0_linear_2_2" x1="658.084" y1="540.188" x2="806.105" y2="303.308" gradientUnits="userSpaceOnUse">
<stop offset="0.6154" stop-color="#587EF1"></stop>
<stop offset="0.9709" stop-color="#69BDFC"></stop>
</linearGradient>
<linearGradient id="paint1_linear_2_2" x1="603.054" y1="446.46" x2="884.242" y2="344.117" gradientUnits="userSpaceOnUse">
<stop offset="0.6154" stop-color="#587EF1"></stop>
<stop offset="0.9709" stop-color="#69BDFC"></stop>
</linearGradient>
<linearGradient id="paint2_linear_2_2" x1="817.032" y1="488.648" x2="817.032" y2="269.955" gradientUnits="userSpaceOnUse">
<stop stop-color="#59B0FC"></stop>
<stop offset="1" stop-color="#A7DAFA"></stop>
</linearGradient>
<linearGradient id="paint3_linear_2_2" x1="740.195" y1="490.951" x2="740.195" y2="268.457" gradientUnits="userSpaceOnUse">
<stop stop-color="#4F8FFB"></stop>
<stop offset="1" stop-color="#A7DAFA"></stop>
</linearGradient>
<linearGradient id="paint4_linear_2_2" x1="371.835" y1="497.255" x2="188.388" y2="278.633" gradientUnits="userSpaceOnUse">
<stop offset="0.3248" stop-color="#548DFA"></stop>
<stop offset="0.6249" stop-color="#81CEFD"></stop>
</linearGradient>
<linearGradient id="paint5_linear_2_2" x1="296.511" y1="493.047" x2="258.548" y2="277.748" gradientUnits="userSpaceOnUse">
<stop offset="0.1814" stop-color="#52A8FC"></stop>
<stop offset="0.6741" stop-color="#C5EAFE"></stop>
</linearGradient>
<linearGradient id="paint6_linear_2_2" x1="225.553" y1="471.697" x2="194.097" y2="289.132" gradientUnits="userSpaceOnUse">
<stop offset="0.2225" stop-color="#6FCAFD"></stop>
<stop offset="0.8088" stop-color="#C5EAFE"></stop>
</linearGradient>
<linearGradient id="paint7_linear_2_2" x1="363.859" y1="460.176" x2="314.89" y2="282.782" gradientUnits="userSpaceOnUse">
<stop offset="0.2802" stop-color="#6FCAFD"></stop>
<stop offset="0.6884" stop-color="#C5EAFE"></stop>
</linearGradient>
<linearGradient id="paint8_linear_2_2" x1="370.481" y1="498.391" x2="186.357" y2="278.961" gradientUnits="userSpaceOnUse">
<stop offset="0.3248" stop-color="#548DFA"></stop>
<stop offset="0.6249" stop-color="#81CEFD"></stop>
</linearGradient>
<linearGradient id="paint9_linear_2_2" x1="317.046" y1="467.663" x2="191.083" y2="249.489" gradientUnits="userSpaceOnUse">
<stop offset="0.6154" stop-color="#587EF1"></stop>
<stop offset="0.9709" stop-color="#69BDFC"></stop>
</linearGradient>
</defs>
</svg>